<svg xmlns="http://www.w3.org/2000/svg" width="195" height="49" fill="none">
  <g fill="#1A2B3C" clip-path="url(#a)">
    <path d="M63.278 13.9h-2.474v18.992a2.302 2.302 0 0 0 2.294 2.31h8.582V33l-8.403-.032V13.899v.001Zm18.518 2.31v16.683a2.302 2.302 0 0 0 2.293 2.31h8.646v-2.14l-8.467-.03v-7.827h7.768v-2.171h-7.768V16.07l8.467-.032V13.9H84.09a2.302 2.302 0 0 0-2.293 2.311Zm36.529-2.31h-1.609a2.29 2.29 0 0 0-1.948 1.091l-4.528 7.341h-.032l-5.263-8.432h-2.949l6.596 10.283-7.009 11.02h1.645c.792 0 1.528-.411 1.946-1.089l4.94-7.981h.031l5.675 9.07h2.981l-7.04-10.955 6.564-10.348Zm17.377 0a1.92 1.92 0 0 0-1.813 1.296l-6.939 20.007h2.475l1.807-5.558h8.784l1.807 5.558h2.6L137.515 15.2a1.92 1.92 0 0 0-1.813-1.3Zm-3.772 13.575 3.677-11.116h.031l3.68 11.116h-7.388Zm31.612-2.585v8.293a2.302 2.302 0 0 0 2.294 2.31h8.582v-2.14l-8.403-.032v-16.683a2.302 2.302 0 0 0-2.294-2.31h-8.582v2.14l8.403.032v8.39Z"/>
    <path d="M6.125 0C2.744 0 0 2.744 0 6.125v36.75C0 46.256 2.744 49 6.125 49h36.75C46.256 49 49 46.256 49 42.875V6.125C49 2.744 46.256 0 42.875 0H6.125Z"/>
    <path fill="#fff" d="M12.25 12.25v24.5h6.125V24.5h12.25v12.25h6.125V12.25H12.25Z"/>
  </g>
  <defs>
    <clipPath id="a">
      <path fill="#fff" d="M0 0h195v49H0z"/>
    </clipPath>
  </defs>
</svg>